<?xml version="1.0" standalone="no"?><!-- Generator: Gravit.io --><svg xmlns="http://www.w3.org/2000/svg" xmlns:xlink="http://www.w3.org/1999/xlink" style="isolation:isolate" viewBox="0 0 76 76" width="76" height="76"><defs><clipPath id="_clipPath_mICL9Pf0OpBi8f6i88JM12lQg3aSN6OJ"><rect width="76" height="76"/></clipPath></defs><g clip-path="url(#_clipPath_mICL9Pf0OpBi8f6i88JM12lQg3aSN6OJ)"><g id="Logo"/><g id="Group"><g id="Group"><g id="Dummynator"><g id="Group"><linearGradient id="_lgradient_0" x1="0%" y1="50%" x2="100%" y2="50%"><stop offset="1.30434782608696%" stop-opacity="1" style="stop-color:rgb(67,206,162)"/><stop offset="97.82608695652173%" stop-opacity="1" style="stop-color:rgb(24,90,157)"/><stop offset="99.1304347826087%" stop-opacity="1" style="stop-color:rgb(24,90,157)"/></linearGradient><path d=" M 2.25 38 C 2.25 18.269 18.269 2.25 38 2.25 C 57.731 2.25 73.75 18.269 73.75 38 C 73.75 57.731 57.731 73.75 38 73.75 C 18.269 73.75 2.25 57.731 2.25 38 Z " fill="url(#_lgradient_0)"/><path d=" M 38 62.871 C 36.903 62.871 35.826 62.712 34.774 62.416 C 24.685 59.569 16.948 44.001 16.948 33.539 C 16.948 22.051 26.19 13.129 38 13.129 C 49.81 13.129 59.052 22.115 59.052 33.539 C 59.052 45.092 49.617 62.871 38 62.871 Z  M 38 15.696 C 27.602 15.696 19.515 23.527 19.515 33.539 C 19.515 43.873 27.987 60.239 38 60.239 C 48.013 60.239 56.485 43.873 56.485 33.539 C 56.485 23.527 48.398 15.696 38 15.696 Z " fill="rgb(255,255,255)"/><path d=" M 22.596 36.748 C 21.826 36.748 21.184 36.042 21.312 35.272 C 21.441 34.63 22.018 34.181 22.66 34.181 C 31.389 34.181 33.122 31.806 33.122 31.806 C 33.122 31.871 33.058 31.871 33.058 31.871 L 33.058 31.871 C 34.342 32.577 34.277 34.374 32.994 35.015 C 31.197 35.914 28.052 36.748 22.596 36.748 Z " fill="rgb(255,255,255)"/><path d=" M 52.313 31.614 C 52.313 31.614 50.58 29.239 41.851 29.239 C 41.209 29.239 40.567 28.79 40.503 28.148 C 40.375 27.378 41.017 26.672 41.787 26.672 C 47.242 26.672 50.387 27.506 52.249 28.405 C 53.468 29.111 53.532 30.908 52.313 31.614 L 52.313 31.614 C 52.249 31.55 52.249 31.614 52.313 31.614 Z " fill="rgb(255,255,255)"/><path d=" M 28.244 37.326 C 28.244 36.157 29.193 35.208 30.362 35.208 C 31.531 35.208 32.48 36.157 32.48 37.326 C 32.48 38.495 31.531 39.444 30.362 39.444 C 29.193 39.444 28.244 38.495 28.244 37.326 Z " fill="rgb(255,255,255)"/><path d=" M 43.52 37.326 C 43.52 36.157 44.469 35.208 45.638 35.208 C 46.807 35.208 47.756 36.157 47.756 37.326 C 47.756 38.495 46.807 39.444 45.638 39.444 C 44.469 39.444 43.52 38.495 43.52 37.326 Z " fill="rgb(255,255,255)"/><path d=" M 36.01 52.923 C 34.277 52.923 32.93 52.858 32.352 52.794 C 31.646 52.73 31.132 52.088 31.197 51.382 C 31.261 50.676 31.838 50.163 32.609 50.227 C 36.395 50.548 42.364 50.355 43.841 48.943 C 44.033 48.751 44.033 48.622 44.033 48.558 C 44.033 47.852 44.611 47.274 45.317 47.274 C 46.023 47.274 46.601 47.852 46.601 48.558 C 46.601 49.392 46.215 50.227 45.574 50.869 C 43.648 52.537 39.219 52.923 36.01 52.923 Z " fill="rgb(255,255,255)"/></g></g></g></g></g></svg>